<svg width="58" height="58" viewBox="0 0 58 58" fill="none" xmlns="http://www.w3.org/2000/svg">
<path d="M54.0865 28.8461C54.0865 42.7788 42.7915 54.0865 28.8462 54.0865C14.9008 54.0865 3.60577 42.7788 3.60577 28.8461C3.60577 14.9008 14.9008 3.60576 28.8462 3.60576C42.7915 3.60576 54.0865 14.9008 54.0865 28.8461Z" fill="#283544"/>
<path d="M40.6769 22.4592C40.5391 22.5396 37.2603 24.2352 37.2603 27.9949C37.4149 32.2826 41.398 33.7863 41.4663 33.7863C41.398 33.8666 40.865 35.8346 39.2861 37.8976C38.033 39.6747 36.6422 41.4663 34.5303 41.4663C32.5213 41.4663 31.8002 40.282 29.4822 40.282C26.9928 40.282 26.2885 41.4663 24.3826 41.4663C22.2706 41.4663 20.7768 39.5787 19.4554 37.8183C17.7387 35.5143 16.2796 31.8986 16.2281 28.4269C16.1934 26.5873 16.5719 24.7789 17.5327 23.2429C18.8888 21.0985 21.3098 19.6429 23.9537 19.5949C25.9794 19.5312 27.7823 20.8909 29.0186 20.8909C30.2033 20.8909 32.4183 19.5949 34.9244 19.5949C36.0062 19.5959 38.8908 19.8996 40.6769 22.4592ZM28.8472 19.2276C28.4867 17.5475 29.4822 15.8675 30.4094 14.7959C31.5941 13.4999 33.4653 12.6202 35.079 12.6202C35.182 14.3002 34.5291 15.9479 33.3623 17.1479C32.3153 18.4439 30.5124 19.4196 28.8472 19.2276Z" fill="white"/>
</svg>
