<svg width="59" height="58" viewBox="0 0 59 58" fill="none" xmlns="http://www.w3.org/2000/svg">
<path d="M55.0122 29.4067C55.0122 27.3314 54.8403 25.817 54.4685 24.2465H30.2869V33.6134H44.4809C44.1949 35.9412 42.6496 39.4468 39.2154 41.8025L39.1673 42.1161L46.813 47.9207L47.3427 47.9725C52.2076 43.5694 55.0122 37.091 55.0122 29.4067Z" fill="#4285F4"/>
<path d="M30.2853 54.0865C37.2392 54.0865 43.077 51.8428 47.3411 47.9727L39.2138 41.8026C37.0389 43.289 34.1199 44.3267 30.2853 44.3267C23.4745 44.3267 17.6939 39.9237 15.6332 33.838L15.3312 33.8631L7.38107 39.8928L7.2771 40.1761C11.5124 48.4213 20.212 54.0865 30.2853 54.0865Z" fill="#34A853"/>
<path d="M15.6348 33.8381C15.091 32.2676 14.7764 30.5848 14.7764 28.8461C14.7764 27.1072 15.091 25.4246 15.6062 23.8541L15.5918 23.5196L7.54196 17.3931L7.27859 17.5158C5.53301 20.9374 4.5314 24.7796 4.5314 28.8461C4.5314 32.9126 5.53301 36.7546 7.27859 40.1761L15.6348 33.8381Z" fill="#FBBC05"/>
<path d="M30.2854 13.3653C35.1217 13.3653 38.384 15.4126 40.2442 17.1234L47.513 10.1683C43.0488 6.10178 37.2393 3.60577 30.2854 3.60577C20.2121 3.60577 11.5124 9.27079 7.2771 17.5159L15.6047 23.8541C17.6939 17.7684 23.4746 13.3653 30.2854 13.3653Z" fill="#EB4335"/>
</svg>
